<?xml version="1.0" encoding="utf-8"?>
<!-- Generator: Adobe Illustrator 16.0.0, SVG Export Plug-In . SVG Version: 6.00 Build 0)  -->
<!DOCTYPE svg PUBLIC "-//W3C//DTD SVG 1.1//EN" "http://www.w3.org/Graphics/SVG/1.1/DTD/svg11.dtd">
<svg version="1.1" id="Layer_1" xmlns="http://www.w3.org/2000/svg" xmlns:xlink="http://www.w3.org/1999/xlink" x="0px" y="0px"
	 width="64px" height="64px" viewBox="0 0 64 64" enable-background="new 0 0 64 64" xml:space="preserve">
<path fill="#8C8583" stroke="#000000" stroke-width="0.5" stroke-miterlimit="10" d="M60.256,56.256h-7.122l1.722-12.566h3.68
	L60.256,56.256z"/>
<path fill="#8C8583" d="M12.877,10.02h37.764v20.1H12.877V10.02z"/>
<path fill="#8C8583" stroke="#000000" stroke-width="0.1378" stroke-miterlimit="10" d="M29.74,4.646L5.754,9.964
	c-1.116,0.248-1.143,1.681-0.042,1.983l24.124,6.337c1.323,0.345,2.741,0.358,4.078,0.042l23.504-5.704
	c1.104-0.262,1.116-1.695,0.014-1.97L33.557,4.688C32.302,4.384,30.994,4.357,29.74,4.646L29.74,4.646z"/>
<ellipse fill="#8C8583" stroke="#000000" stroke-width="0.5" stroke-miterlimit="10" cx="56.688" cy="42.561" rx="3.127" ry="3.651"/>
<ellipse fill="none" cx="32.349" cy="43.247" rx="17.655" ry="17.655"/>
<path fill="none" stroke="#000000" stroke-width="0.25" stroke-miterlimit="10" d="M18.098,54.448l0.717-0.466
	c0.455-0.306,0.579-0.924,0.275-1.379l-0.233-0.357c-2.838-4.271-3.486-9.698-1.75-14.508c3.045-8.417,12.373-12.785,20.79-9.74
	c1.873,0.675,3.597,1.681,5.1,2.976l0.33,0.276c0.412,0.358,1.046,0.316,1.404-0.098l0.565-0.647
	c0.358-0.413,0.315-1.047-0.097-1.405l-0.331-0.275c-1.765-1.529-3.775-2.7-5.979-3.499c-9.892-3.583-20.858,1.557-24.439,11.449
	c-1.033,2.853-1.378,5.938-0.992,8.928c0.372,2.893,1.418,5.704,3.03,8.128l0.234,0.356C17.024,54.63,17.644,54.754,18.098,54.448
	L18.098,54.448z"/>
<path fill="none" stroke="#000000" stroke-width="0.5" stroke-miterlimit="10" d="M43.545,41.432c-1.213,0-2.204-0.979-2.204-2.205
	c0-0.621,0.247-1.17,0.646-1.569c-0.84-1.282-1.942-2.384-3.223-3.226c-0.398,0.428-0.979,0.703-1.613,0.703
	c-1.226,0-2.217-0.979-2.217-2.203c0-0.029,0-0.057,0-0.082c-0.729-0.154-1.488-0.223-2.26-0.223c-0.744,0-1.46,0.083-2.163,0.223
	v0.096c0,1.227-0.979,2.218-2.205,2.218c-0.661,0-1.24-0.274-1.653-0.729c-1.295,0.854-2.397,1.971-3.238,3.267
	c0.427,0.397,0.689,0.964,0.689,1.597c0,1.229-0.979,2.219-2.205,2.219c-0.014,0-0.027,0-0.041,0
	c-0.138,0.717-0.22,1.461-0.208,2.217c0,0.773,0.083,1.529,0.248,2.262c1.185,0.042,2.136,1.007,2.149,2.204
	c0,0.593-0.221,1.114-0.592,1.515c0.841,1.282,1.943,2.385,3.224,3.225c0.4-0.427,0.979-0.703,1.612-0.703
	c1.227,0,2.218,0.979,2.218,2.205v0.084c0.73,0.149,1.487,0.219,2.259,0.219c0.758,0,1.502-0.081,2.219-0.232
	c0-0.027,0-0.058,0-0.083c0-1.227,0.979-2.219,2.203-2.219c0.649,0,1.229,0.274,1.642,0.717c1.267-0.841,2.356-1.942,3.183-3.211
	c-0.386-0.399-0.619-0.937-0.619-1.528c0-1.213,0.963-2.189,2.164-2.219c0.149-0.742,0.233-1.515,0.233-2.314
	C43.777,42.877,43.695,42.146,43.545,41.432L43.545,41.432z M32.744,48.719c-2.783,0.014-5.042-2.23-5.056-5.001
	c-0.014-2.782,2.231-5.042,5-5.056c2.77-0.016,5.043,2.23,5.058,5.001C37.771,46.443,35.525,48.705,32.744,48.719L32.744,48.719z"/>
<path fill="#8C8583" stroke="#000000" stroke-width="0.5" stroke-miterlimit="10" d="M56.825,39.364
	c-0.302,0-0.537-0.248-0.537-0.537V12.899c0-0.304,0.25-0.538,0.537-0.538c0.304,0,0.538,0.248,0.538,0.538v25.914
	C57.377,39.116,57.129,39.364,56.825,39.364z"/>
<g>
	<path d="M18.98,55.318c-0.151,0-0.303-0.069-0.414-0.194c-0.179-0.205-0.358-0.426-0.537-0.646c-0.18-0.233-0.138-0.58,0.096-0.76
		c0.234-0.178,0.578-0.137,0.758,0.098c0.165,0.207,0.33,0.414,0.495,0.606c0.193,0.234,0.166,0.565-0.055,0.771
		C19.242,55.277,19.104,55.318,18.98,55.318L18.98,55.318z"/>
	<path d="M32.372,61.463c-0.428,0-0.855-0.015-1.268-0.043c-0.303-0.025-0.523-0.273-0.51-0.577c0.027-0.303,0.276-0.522,0.579-0.51
		c0.4,0.026,0.799,0.041,1.2,0.041h0.441c0.303-0.015,0.549,0.235,0.549,0.522c0.016,0.305-0.232,0.552-0.522,0.552
		C32.688,61.463,32.536,61.463,32.372,61.463L32.372,61.463z M36.326,61.021c-0.249,0-0.471-0.164-0.524-0.426
		c-0.067-0.291,0.11-0.58,0.414-0.647c0.536-0.124,1.062-0.276,1.583-0.44c0.29-0.098,0.594,0.055,0.689,0.344
		c0.097,0.291-0.057,0.594-0.344,0.689c-0.552,0.18-1.117,0.344-1.683,0.468C36.408,61.008,36.366,61.021,36.326,61.021
		L36.326,61.021z M27.674,60.829c-0.041,0-0.097,0-0.152-0.015c-0.455-0.125-0.896-0.274-1.35-0.428
		c-0.111-0.039-0.208-0.082-0.317-0.109c-0.276-0.11-0.413-0.428-0.316-0.701c0.11-0.277,0.426-0.414,0.702-0.317
		c0.097,0.04,0.192,0.068,0.29,0.11c0.413,0.15,0.84,0.289,1.267,0.398c0.29,0.082,0.455,0.387,0.372,0.662
		C28.128,60.664,27.908,60.829,27.674,60.829L27.674,60.829z M41.176,59.121c-0.193,0-0.373-0.098-0.47-0.275
		c-0.149-0.263-0.056-0.594,0.207-0.744c0.469-0.274,0.937-0.564,1.379-0.883c0.247-0.179,0.577-0.109,0.756,0.125
		c0.181,0.247,0.111,0.578-0.123,0.758c-0.468,0.33-0.964,0.646-1.475,0.937C41.354,59.094,41.257,59.121,41.176,59.121z
		 M22.92,58.721c-0.096,0-0.193-0.027-0.289-0.082c-0.497-0.304-0.964-0.646-1.433-1.006c-0.234-0.181-0.275-0.523-0.096-0.758
		c0.179-0.232,0.523-0.275,0.758-0.098c0.427,0.33,0.881,0.647,1.335,0.938c0.248,0.164,0.331,0.496,0.166,0.744
		C23.279,58.625,23.1,58.721,22.92,58.721L22.92,58.721z M45.253,55.896c-0.138,0-0.262-0.056-0.371-0.15
		c-0.223-0.206-0.235-0.551-0.028-0.771c0.371-0.399,0.73-0.813,1.062-1.238c0.179-0.234,0.524-0.276,0.759-0.098
		c0.233,0.178,0.275,0.523,0.096,0.758c-0.356,0.455-0.729,0.91-1.129,1.322C45.543,55.841,45.391,55.896,45.253,55.896
		L45.253,55.896z M48.214,51.627c-0.082,0-0.165-0.014-0.231-0.059c-0.275-0.137-0.387-0.452-0.248-0.729
		c0.233-0.482,0.453-0.992,0.646-1.503c0.111-0.274,0.415-0.426,0.704-0.315c0.273,0.111,0.428,0.412,0.314,0.701
		c-0.205,0.538-0.439,1.075-0.688,1.601C48.6,51.518,48.409,51.627,48.214,51.627L48.214,51.627z M49.813,46.68
		c-0.027,0-0.055,0-0.097-0.014c-0.289-0.055-0.495-0.331-0.44-0.62c0.082-0.538,0.151-1.088,0.193-1.626
		c0.012-0.304,0.274-0.523,0.578-0.51c0.303,0.014,0.521,0.275,0.51,0.579c-0.041,0.577-0.111,1.157-0.207,1.735
		C50.296,46.486,50.075,46.68,49.813,46.68z M49.896,41.473c-0.263,0-0.498-0.191-0.539-0.47c-0.067-0.536-0.164-1.087-0.289-1.61
		c-0.069-0.289,0.111-0.58,0.4-0.647c0.289-0.068,0.578,0.11,0.646,0.399c0.138,0.563,0.234,1.144,0.316,1.722
		c0.041,0.303-0.166,0.565-0.469,0.606C49.938,41.473,49.91,41.473,49.896,41.473L49.896,41.473z M48.449,36.484
		c-0.207,0-0.4-0.123-0.497-0.317c-0.22-0.494-0.481-0.99-0.742-1.46c-0.151-0.262-0.056-0.591,0.192-0.743
		c0.261-0.151,0.592-0.057,0.744,0.192c0.287,0.496,0.552,1.021,0.799,1.558c0.123,0.274,0,0.591-0.275,0.716
		C48.6,36.471,48.532,36.484,48.449,36.484L48.449,36.484z"/>
	<path d="M45.624,32.104c-0.149,0-0.304-0.068-0.411-0.179c-0.181-0.193-0.359-0.386-0.538-0.58
		c-0.208-0.22-0.208-0.564,0.015-0.771c0.22-0.206,0.563-0.206,0.771,0.014c0.192,0.207,0.386,0.415,0.563,0.621
		c0.192,0.22,0.18,0.564-0.041,0.771C45.873,32.063,45.749,32.104,45.624,32.104L45.624,32.104z"/>
</g>
<path fill="#8C8583" stroke="#050505" stroke-width="0.5" stroke-miterlimit="10" d="M17.547,55.166
	c-0.497,0-0.992-0.247-1.281-0.688l-0.235-0.357c-1.653-2.507-2.742-5.4-3.127-8.364c-0.399-3.069-0.042-6.239,1.019-9.175
	c3.679-10.182,14.963-15.459,25.13-11.78c2.274,0.826,4.34,2.039,6.16,3.596l0.33,0.276c0.646,0.551,0.716,1.529,0.15,2.162
	l-0.565,0.649c-0.55,0.647-1.528,0.716-2.162,0.151l-0.331-0.276c-1.445-1.254-3.1-2.218-4.917-2.879
	c-3.94-1.42-8.198-1.227-12,0.551c-3.802,1.778-6.683,4.932-8.101,8.858c-1.68,4.657-1.046,9.893,1.681,14.024l0.234,0.358
	c0.221,0.345,0.303,0.756,0.221,1.156c-0.083,0.399-0.317,0.743-0.662,0.979l-0.716,0.468C18.14,55.084,17.837,55.166,17.547,55.166
	L17.547,55.166z M32.399,24.706c-7.591,0-14.727,4.698-17.455,12.233c-1.005,2.77-1.336,5.772-0.965,8.666
	c0.359,2.812,1.378,5.539,2.949,7.908l0.234,0.359c0.138,0.205,0.414,0.261,0.633,0.123l0.716-0.471
	c0.097-0.067,0.166-0.164,0.193-0.289c0.028-0.125,0-0.232-0.068-0.344l-0.234-0.357c-2.935-4.408-3.597-10.016-1.805-14.989
	c1.529-4.202,4.602-7.579,8.666-9.479c4.065-1.902,8.625-2.108,12.827-0.593c1.942,0.703,3.721,1.736,5.264,3.072l0.33,0.277
	c0.191,0.165,0.469,0.137,0.635-0.042l0.564-0.647c0.164-0.193,0.139-0.468-0.043-0.633l-0.331-0.276
	c-1.706-1.474-3.663-2.618-5.813-3.403C36.613,25.064,34.493,24.706,32.399,24.706L32.399,24.706z"/>
<path fill="#605E5D" stroke="#000000" stroke-width="0.5" stroke-miterlimit="10" d="M31.944,19.099
	c-0.757,0-1.516-0.097-2.245-0.29L5.575,12.471c-0.744-0.193-1.226-0.813-1.212-1.543c0.014-0.73,0.523-1.322,1.281-1.502
	L29.63,4.094c1.337-0.302,2.743-0.275,4.063,0.056l23.877,5.951c0.742,0.18,1.238,0.799,1.238,1.516c0,0.73-0.509,1.336-1.238,1.515
	l-23.504,5.704C33.35,19.016,32.646,19.099,31.944,19.099z M29.851,5.17L5.878,10.502c-0.386,0.082-0.428,0.371-0.428,0.454
	s0.028,0.373,0.4,0.469l24.123,6.337c1.24,0.331,2.562,0.345,3.802,0.042L57.294,12.1c0.386-0.097,0.414-0.373,0.414-0.455
	c0-0.083-0.028-0.372-0.414-0.468L33.417,5.211C32.261,4.921,31.021,4.907,29.851,5.17L29.851,5.17z"/>
<path fill="#605E5D" stroke="#000000" stroke-width="0.5" stroke-miterlimit="10" d="M15.797,30.67h-2.92
	c-0.303,0-0.537-0.249-0.537-0.537V14.152c0-0.303,0.248-0.537,0.537-0.537c0.303,0,0.538,0.248,0.538,0.537v15.444h2.383
	c0.303,0,0.538,0.248,0.538,0.538C16.335,30.422,16.101,30.67,15.797,30.67z"/>
<path fill="#605E5D" stroke="#000000" stroke-width="0.5" stroke-miterlimit="10" d="M50.641,30.67h-2.219
	c-0.303,0-0.538-0.249-0.538-0.537c0-0.29,0.248-0.538,0.538-0.538h1.666V14.262c0-0.303,0.25-0.537,0.539-0.537
	c0.303,0,0.537,0.248,0.537,0.537V30.12C51.189,30.422,50.941,30.67,50.641,30.67z"/>
<path fill="#8C8583" d="M56.825,46.749c-2.024,0-3.677-1.874-3.677-4.188s1.651-4.188,3.677-4.188c2.022,0,3.681,1.872,3.681,4.188
	C60.506,44.875,58.85,46.749,56.825,46.749z M56.825,39.46c-1.433,0-2.591,1.394-2.591,3.101c0,1.709,1.158,3.101,2.591,3.101
	c1.434,0,2.591-1.392,2.591-3.101C59.416,40.854,58.259,39.46,56.825,39.46z"/>
<path fill="#8C8583" stroke="#000000" stroke-width="0.25" stroke-miterlimit="10" d="M32.729,55.291
	c-0.785,0-1.557-0.084-2.313-0.234c-0.262-0.056-0.441-0.289-0.427-0.551c0-0.014,0-0.043,0-0.058c0-0.439-0.178-0.866-0.496-1.183
	c-0.317-0.318-0.73-0.481-1.171-0.481c0,0,0,0-0.014,0c-0.469,0-0.896,0.19-1.212,0.536c-0.179,0.191-0.469,0.234-0.689,0.082
	c-1.336-0.881-2.507-2.039-3.375-3.389c-0.139-0.207-0.111-0.482,0.054-0.662c0.29-0.316,0.455-0.717,0.455-1.144
	c0-0.909-0.717-1.64-1.612-1.667c-0.249-0.014-0.469-0.18-0.51-0.428c-0.165-0.771-0.248-1.569-0.261-2.369
	c0-0.785,0.068-1.557,0.22-2.328c0.055-0.262,0.29-0.441,0.551-0.441c0.936,0,1.681-0.757,1.667-1.681
	c0-0.454-0.193-0.896-0.523-1.211c-0.193-0.181-0.22-0.472-0.083-0.69c0.868-1.35,2.053-2.535,3.389-3.43
	c0.22-0.15,0.524-0.109,0.703,0.096c0.317,0.359,0.771,0.553,1.254,0.553c0.923,0,1.667-0.758,1.667-1.682c0-0.027,0-0.043,0-0.056
	c-0.015-0.276,0.165-0.51,0.426-0.565c0.744-0.151,1.502-0.233,2.274-0.233c0.8,0,1.598,0.068,2.384,0.233
	c0.262,0.056,0.439,0.289,0.428,0.552v0.056c0,0.923,0.758,1.667,1.666,1.667h0.014c0.469,0,0.896-0.193,1.213-0.538
	c0.18-0.192,0.469-0.233,0.689-0.082c1.363,0.882,2.492,2.024,3.375,3.39c0.139,0.221,0.11,0.496-0.068,0.674
	c-0.317,0.318-0.496,0.746-0.481,1.186c0,0.91,0.759,1.653,1.665,1.667c0.264,0,0.482,0.181,0.523,0.429
	c0.15,0.758,0.234,1.541,0.248,2.313c0,0.814-0.082,1.641-0.248,2.426c-0.053,0.248-0.262,0.428-0.523,0.428
	c-0.906,0.015-1.639,0.771-1.639,1.682c0,0.427,0.166,0.841,0.467,1.156c0.182,0.181,0.208,0.455,0.07,0.674
	c-0.883,1.353-1.998,2.48-3.334,3.377c-0.219,0.15-0.522,0.111-0.702-0.082c-0.316-0.346-0.759-0.538-1.239-0.538
	c-0.441,0-0.868,0.18-1.173,0.496c-0.315,0.317-0.481,0.729-0.481,1.186v0.056c0.016,0.261-0.164,0.511-0.426,0.564
	c-0.759,0.15-1.543,0.234-2.314,0.248C32.758,55.291,32.744,55.291,32.729,55.291z M31.021,54.078
	c0.579,0.096,1.158,0.138,1.749,0.138c0.565,0,1.131-0.055,1.696-0.138c0.082-0.592,0.343-1.145,0.771-1.584
	c0.522-0.523,1.213-0.814,1.941-0.814c0.605,0,1.199,0.194,1.682,0.566c0.965-0.689,1.791-1.53,2.467-2.493
	c-0.317-0.455-0.482-0.992-0.482-1.558c0-1.336,0.965-2.479,2.244-2.715c0.1-0.594,0.152-1.211,0.152-1.817
	c0-0.579-0.055-1.144-0.152-1.708c-1.293-0.221-2.286-1.352-2.286-2.7c0-0.579,0.179-1.146,0.511-1.612
	c-0.688-0.979-1.529-1.818-2.492-2.508c-0.471,0.357-1.049,0.553-1.654,0.564H37.15c-0.729,0-1.418-0.29-1.941-0.799
	c-0.427-0.428-0.702-0.979-0.785-1.57c-0.578-0.096-1.156-0.139-1.75-0.139c-0.551,0-1.102,0.043-1.64,0.139
	c-0.165,1.35-1.322,2.396-2.714,2.411h-0.014c-0.619,0-1.212-0.207-1.694-0.579c-0.964,0.689-1.818,1.559-2.507,2.536
	c0.358,0.467,0.551,1.032,0.551,1.639c0,1.377-1.006,2.521-2.314,2.729c-0.083,0.563-0.138,1.129-0.124,1.707
	c0,0.593,0.055,1.186,0.152,1.778c1.281,0.246,2.218,1.351,2.232,2.685c0,0.553-0.166,1.089-0.469,1.545
	c0.689,0.963,1.543,1.833,2.508,2.521c0.468-0.358,1.047-0.551,1.653-0.563h0.014c0.73,0,1.419,0.286,1.943,0.797
	C30.677,52.936,30.938,53.486,31.021,54.078L31.021,54.078z M32.729,49.271c-1.473,0-2.865-0.58-3.925-1.612
	c-1.06-1.048-1.639-2.438-1.653-3.929c-0.014-1.485,0.565-2.892,1.612-3.953c1.047-1.061,2.438-1.639,3.925-1.653
	c3.072-0.013,5.58,2.481,5.594,5.554C38.295,46.749,35.802,49.257,32.729,49.271L32.729,49.271z M32.729,39.212
	c-0.013,0-0.013,0-0.026,0c-1.198,0-2.328,0.483-3.169,1.322c-0.84,0.854-1.309,1.985-1.295,3.184c0,1.199,0.482,2.328,1.323,3.168
	c0.854,0.841,1.969,1.31,3.182,1.296c2.481-0.014,4.478-2.039,4.464-4.505C37.191,41.21,35.195,39.212,32.729,39.212z"/>
<path fill="#8C8583" stroke="#000000" stroke-width="0.5" stroke-miterlimit="10" d="M60.256,56.807h-7.122
	c-0.151,0-0.303-0.067-0.413-0.192c-0.096-0.124-0.15-0.276-0.125-0.427l1.502-10.955c0.041-0.301,0.317-0.508,0.606-0.465
	c0.303,0.039,0.509,0.313,0.468,0.604l-1.419,10.332h5.87l-1.516-10.235c-0.043-0.301,0.164-0.579,0.453-0.62
	c0.287-0.041,0.58,0.166,0.621,0.457l1.598,10.854c0.027,0.151-0.026,0.315-0.123,0.427C60.561,56.695,60.406,56.807,60.256,56.807
	L60.256,56.807z"/>
</svg>
