<?xml version="1.0" encoding="utf-8"?>
<!-- Generator: Adobe Illustrator 16.0.0, SVG Export Plug-In . SVG Version: 6.00 Build 0)  -->
<!DOCTYPE svg PUBLIC "-//W3C//DTD SVG 1.1//EN" "http://www.w3.org/Graphics/SVG/1.1/DTD/svg11.dtd">
<svg version="1.1" id="Layer_1" xmlns="http://www.w3.org/2000/svg" xmlns:xlink="http://www.w3.org/1999/xlink" x="0px" y="0px"
	 width="64px" height="64px" viewBox="0 0 64 64" enable-background="new 0 0 64 64" xml:space="preserve">
<path fill="#DCE468" stroke="#000000" stroke-width="0.5391" stroke-miterlimit="10" d="M24.417,19.854
	c0-0.751-0.608-1.359-1.359-1.359s-1.359,0.608-1.359,1.359s0.608,1.359,1.359,1.359S24.417,20.604,24.417,19.854z"/>
<ellipse fill="#18AECD" stroke="#000000" stroke-width="0.5391" stroke-miterlimit="10" cx="28.507" cy="19.855" rx="1.359" ry="1.359"/>
<ellipse fill="#DCE468" stroke="#000000" stroke-width="0.5391" stroke-miterlimit="10" cx="33.962" cy="19.856" rx="1.359" ry="1.359"/>
<path fill="#E38830" stroke="#000000" stroke-width="0.4662" stroke-miterlimit="10" d="M61.083,39.881
	c0.483,0,0.874-0.393,0.874-0.874V23.996c0-1.98-1.611-3.591-3.592-3.591H44.684V7.886c0-1.979-1.61-3.591-3.592-3.591H14.817
	c-0.482,0-0.874,0.391-0.874,0.874s0.391,0.874,0.874,0.874h26.275c1.018,0,1.844,0.828,1.844,1.843v24.432
	c0,1.017-0.826,1.844-1.844,1.844h-23.88c-0.397,0-0.779,0.146-1.076,0.408L9.745,40.26v-4.48c0-0.893-0.726-1.617-1.618-1.617
	H5.879c-1.017,0-1.844-0.827-1.844-1.844V7.886c0-1.016,0.827-1.843,1.844-1.843h4.854c0.482,0,0.874-0.391,0.874-0.874
	c0-0.482-0.392-0.874-0.874-0.874H5.879c-1.98,0-3.591,1.611-3.591,3.591v24.432c0,1.98,1.611,3.592,3.591,3.592h2.118v4.639
	c0,0.646,0.366,1.212,0.956,1.477c0.217,0.098,0.444,0.146,0.668,0.146c0.386,0,0.765-0.142,1.069-0.413l6.569-5.847h2.3V48.43
	c0,1.979,1.611,3.592,3.592,3.592h23.832l6.568,5.847c0.307,0.272,0.684,0.411,1.07,0.411c0.225,0,0.452-0.047,0.668-0.145
	c0.59-0.264,0.956-0.83,0.956-1.477V52.02h2.118c1.979,0,3.592-1.61,3.592-3.592v-5.361c0-0.482-0.391-0.873-0.874-0.873
	c-0.481,0-0.873,0.391-0.873,0.873v5.361c0,1.018-0.828,1.844-1.845,1.844h-2.247c-0.894,0-1.618,0.727-1.618,1.619v4.479
	l-6.391-5.688c-0.299-0.266-0.681-0.41-1.076-0.41H23.152c-1.016,0-1.843-0.826-1.843-1.844V35.91h19.783
	c1.98,0,3.592-1.611,3.592-3.592V22.151h13.684c1.016,0,1.844,0.828,1.844,1.844v15.011C60.21,39.488,60.602,39.881,61.083,39.881
	L61.083,39.881z"/>
</svg>
