<?xml version="1.0" encoding="utf-8"?>
<!-- Generator: Adobe Illustrator 16.0.0, SVG Export Plug-In . SVG Version: 6.00 Build 0)  -->
<!DOCTYPE svg PUBLIC "-//W3C//DTD SVG 1.1//EN" "http://www.w3.org/Graphics/SVG/1.1/DTD/svg11.dtd">
<svg version="1.1" id="Layer_1" xmlns="http://www.w3.org/2000/svg" xmlns:xlink="http://www.w3.org/1999/xlink" x="0px" y="0px"
	 width="64px" height="64px" viewBox="0 0 64 64" enable-background="new 0 0 64 64" xml:space="preserve">
<path fill="none" stroke="#000000" stroke-width="0.5" stroke-miterlimit="10" d="M14.6,23.984c0.579,0,1.049-0.47,1.049-1.049
	V8.246c0-1.738,1.41-3.147,3.148-3.147h4.197v1.049c0,1.738,1.409,3.147,3.148,3.147h10.491c1.738,0,3.146-1.409,3.146-3.147V5.099
	h4.197c1.738,0,3.146,1.409,3.146,3.147v14.689c0,0.579,0.471,1.049,1.049,1.049c0.581,0,1.051-0.47,1.051-1.049V8.246
	C49.223,5.349,46.875,3,43.977,3h-25.18c-2.897,0-5.246,2.349-5.246,5.246v14.689C13.551,23.514,14.021,23.984,14.6,23.984z
	 M37.682,5.099v1.049c0,0.579-0.47,1.048-1.049,1.048H26.142c-0.58,0-1.05-0.469-1.05-1.048V5.099H37.682z"/>
<path fill="none" stroke="#000000" stroke-width="0.5" stroke-miterlimit="10" d="M48.173,40.771c-0.577,0-1.049,0.471-1.049,1.049
	v13.64H15.649V41.82c0-0.578-0.47-1.049-1.049-1.049c-0.58,0-1.049,0.471-1.049,1.049v14.688c0,2.897,2.349,5.245,5.246,5.245h25.18
	c2.898,0,5.246-2.348,5.246-5.245v-14.69C49.223,41.241,48.754,40.771,48.173,40.771z M43.977,59.654h-25.18
	c-1.331-0.002-2.515-0.844-2.958-2.098h31.099C46.492,58.813,45.309,59.652,43.977,59.654z"/>
<path fill="#8C8583" stroke="#000000" stroke-width="0.5" stroke-miterlimit="10" d="M57.616,29.229
	c-1.33,0.004-2.517,0.844-2.958,2.099h-8.583c-0.579,0-1.05,0.47-1.05,1.049c0,0.58,0.471,1.049,1.05,1.049h8.583
	c0.578,1.641,2.377,2.498,4.017,1.92c1.64-0.58,2.498-2.378,1.918-4.018C60.146,30.067,58.954,29.226,57.616,29.229z M57.616,33.426
	c-0.578,0-1.05-0.469-1.05-1.049c0-0.579,0.472-1.049,1.05-1.049c0.579,0,1.05,0.47,1.05,1.049
	C58.666,32.957,58.195,33.426,57.616,33.426z"/>
<path fill="#8C8583" stroke="#000000" stroke-width="0.5" stroke-miterlimit="10" d="M43.977,27.131c0,0.58,0.471,1.049,1.051,1.049
	h7.344c0.58,0,1.049-0.469,1.049-1.049v-5.246h1.239c0.579,1.639,2.377,2.498,4.017,1.918c1.639-0.579,2.498-2.377,1.918-4.017
	c-0.578-1.639-2.378-2.498-4.017-1.918c-0.896,0.317-1.601,1.022-1.918,1.918H52.37c-0.579,0-1.05,0.47-1.05,1.049v5.246h-6.295
	C44.445,26.082,43.977,26.552,43.977,27.131z M57.616,19.787c0.579,0,1.05,0.47,1.05,1.049c0,0.58-0.471,1.049-1.05,1.049
	c-0.578,0-1.05-0.469-1.05-1.049C56.566,20.257,57.038,19.787,57.616,19.787z"/>
<path fill="#8C8583" stroke="#000000" stroke-width="0.5" stroke-miterlimit="10" d="M57.616,40.771
	c-1.33,0.004-2.517,0.845-2.958,2.099h-1.239v-5.246c0-0.58-0.469-1.049-1.049-1.049h-7.345c-0.58,0-1.049,0.469-1.049,1.049
	s0.469,1.05,1.049,1.05h6.295v5.245c0,0.58,0.471,1.05,1.05,1.05h2.288c0.578,1.639,2.377,2.497,4.017,1.918
	c1.64-0.578,2.498-2.378,1.918-4.017C60.146,41.607,58.954,40.768,57.616,40.771z M57.616,44.968c-0.578,0-1.05-0.47-1.05-1.05
	s0.472-1.049,1.05-1.049c0.579,0,1.05,0.469,1.05,1.049S58.195,44.968,57.616,44.968z"/>
<path fill="#8C8583" stroke="#000000" stroke-width="0.5" stroke-miterlimit="10" d="M5.158,35.523
	c1.331-0.004,2.515-0.844,2.958-2.099h8.582c0.58,0,1.049-0.469,1.049-1.049c0-0.579-0.47-1.049-1.049-1.049H8.116
	c-0.579-1.64-2.378-2.498-4.017-1.919c-1.639,0.581-2.498,2.378-1.918,4.017C2.626,34.688,3.82,35.527,5.158,35.523z M5.158,31.328
	c0.579,0,1.049,0.47,1.049,1.049c0,0.58-0.47,1.049-1.049,1.049c-0.58,0-1.049-0.469-1.049-1.049
	C4.108,31.798,4.578,31.328,5.158,31.328z"/>
<path fill="#8C8583" stroke="#000000" stroke-width="0.5" stroke-miterlimit="10" d="M18.797,37.623c0-0.58-0.47-1.049-1.049-1.049
	h-7.344c-0.58,0-1.049,0.469-1.049,1.049v5.246H8.116C7.537,41.23,5.738,40.371,4.1,40.951c-1.639,0.578-2.498,2.377-1.918,4.017
	s2.377,2.497,4.017,1.918c0.896-0.315,1.601-1.021,1.918-1.918h2.287c0.58,0,1.049-0.47,1.049-1.05v-5.245h6.295
	C18.327,38.673,18.797,38.203,18.797,37.623z M5.158,44.968c-0.58,0-1.049-0.47-1.049-1.05s0.47-1.049,1.049-1.049
	c0.579,0,1.049,0.469,1.049,1.049S5.737,44.968,5.158,44.968z"/>
<path fill="#8C8583" stroke="#000000" stroke-width="0.5" stroke-miterlimit="10" d="M5.158,23.984
	c1.331-0.004,2.515-0.844,2.958-2.099h1.238v5.246c0,0.58,0.47,1.049,1.049,1.049h7.344c0.579,0,1.049-0.469,1.049-1.049
	c0-0.579-0.47-1.049-1.049-1.049h-6.295v-5.246c0-0.579-0.47-1.049-1.049-1.049H8.116c-0.579-1.639-2.378-2.498-4.017-1.918
	c-1.639,0.579-2.498,2.378-1.918,4.017C2.626,23.146,3.82,23.987,5.158,23.984z M5.158,19.787c0.579,0,1.049,0.47,1.049,1.049
	c0,0.58-0.47,1.049-1.049,1.049c-0.58,0-1.049-0.469-1.049-1.049C4.108,20.257,4.578,19.787,5.158,19.787z"/>
<path fill="#8C8583" stroke="#0E0E0E" stroke-width="0.5" stroke-miterlimit="10" d="M33.484,29.229c0,0.579,0.471,1.049,1.05,1.049
	s1.049-0.47,1.049-1.049c0-1.159-0.938-2.099-2.099-2.099h-1.049v-1.049c0-0.579-0.469-1.048-1.049-1.048
	c-0.579,0-1.049,0.469-1.049,1.048v1.049h-1.049c-1.159,0-2.099,0.939-2.099,2.099v2.099c0,1.159,0.939,2.098,2.099,2.098h4.196v2.1
	h-4.196c0-0.578-0.469-1.049-1.049-1.049c-0.579,0-1.049,0.471-1.049,1.049c0,1.158,0.939,2.099,2.099,2.099h1.049v1.05
	c0,0.579,0.47,1.049,1.049,1.049c0.58,0,1.049-0.47,1.049-1.049v-1.05h1.05c1.158,0,2.098-0.938,2.098-2.099v-2.1
	c0-1.159-0.939-2.098-2.098-2.098h-4.197v-2.099H33.484z"/>
<path fill="none" stroke="#000000" stroke-width="0.5246" stroke-miterlimit="10" d="M31.387,20.836
	c-6.374,0-11.541,5.168-11.541,11.541c0,6.374,5.167,11.541,11.541,11.541c6.375,0,11.541-5.167,11.541-11.541
	C42.928,26.004,37.762,20.836,31.387,20.836z M31.387,41.818c-5.215,0-9.442-4.227-9.442-9.441s4.228-9.442,9.442-9.442
	s9.442,4.228,9.442,9.442l0,0C40.829,37.593,36.602,41.818,31.387,41.818z"/>
</svg>
