<?xml version="1.0" encoding="utf-8"?>
<!-- Generator: Adobe Illustrator 16.0.0, SVG Export Plug-In . SVG Version: 6.00 Build 0)  -->
<!DOCTYPE svg PUBLIC "-//W3C//DTD SVG 1.1//EN" "http://www.w3.org/Graphics/SVG/1.1/DTD/svg11.dtd">
<svg version="1.1" id="Layer_1" xmlns="http://www.w3.org/2000/svg" xmlns:xlink="http://www.w3.org/1999/xlink" x="0px" y="0px"
	 width="64px" height="64px" viewBox="0 0 64 64" enable-background="new 0 0 64 64" xml:space="preserve">
<path id="_461191048" fill="#DCE468" d="M5.532,23.046h3.123V8.277c0-0.337,0.272-0.609,0.609-0.609h14.769V4.532h-18.5V23.046z
	 M9.264,24.277H4.911c-0.337,0-0.609-0.273-0.609-0.61V3.911c0-0.337,0.272-0.609,0.609-0.609h19.744c0.337,0,0.61,0.272,0.61,0.609
	v4.353c0,0.337-0.273,0.608-0.61,0.608H9.885v14.77C9.885,23.991,9.613,24.277,9.264,24.277L9.264,24.277z"/>
<path id="_461191480" fill="#DCE468" d="M5.532,58.284h18.514v-3.123H9.277c-0.337,0-0.609-0.272-0.609-0.609V39.783H5.532V58.284z
	 M24.654,59.515H4.911c-0.337,0-0.609-0.272-0.609-0.608V39.162c0-0.336,0.272-0.609,0.609-0.609h4.353
	c0.336,0,0.608,0.273,0.608,0.609v14.769h14.77c0.337,0,0.609,0.272,0.609,0.608v4.353c0,0.17-0.065,0.326-0.182,0.429
	C24.979,59.449,24.823,59.515,24.654,59.515L24.654,59.515z"/>
<path id="_461191432" fill="#DCE468" d="M40.771,58.284h18.513V39.771h-3.123v14.768c0,0.338-0.272,0.61-0.609,0.61H40.783
	L40.771,58.284z M59.906,59.515H40.162c-0.336,0-0.609-0.272-0.609-0.608v-4.354c0-0.336,0.273-0.608,0.609-0.608h14.769V39.175
	c0-0.337,0.272-0.609,0.608-0.609h4.353c0.337,0,0.61,0.272,0.61,0.609v19.744C60.515,59.242,60.242,59.515,59.906,59.515
	L59.906,59.515z"/>
<path id="_461191144" fill="#DCE468" d="M56.161,23.046h3.123V4.532H40.771v3.123h14.768c0.338,0,0.61,0.272,0.61,0.609
	L56.161,23.046z M59.906,24.277h-4.354c-0.336,0-0.608-0.273-0.608-0.61V8.898H40.175c-0.337,0-0.609-0.271-0.609-0.608V3.937
	c0-0.337,0.272-0.609,0.609-0.609h19.731c0.336,0,0.608,0.272,0.608,0.609v19.744C60.515,23.991,60.242,24.277,59.906,24.277
	L59.906,24.277z"/>
<path id="_461191216" fill="none" stroke="#E28425" stroke-width="0.4975" stroke-miterlimit="10" d="M32.415,52.118
	c-7.164,0-12.995-5.831-12.995-12.994v-15.43c0-3.148,1.153-6.193,3.238-8.565c0.221-0.257,0.61-0.284,0.868-0.051
	c0.26,0.221,0.286,0.609,0.052,0.868c-1.891,2.151-2.94,4.911-2.94,7.761v15.429c0,6.491,5.272,11.763,11.763,11.763
	c6.491,0,11.764-5.271,11.764-11.763V23.694c0-2.851-1.05-5.61-2.941-7.761c-0.22-0.258-0.194-0.647,0.053-0.867
	c0.258-0.221,0.647-0.194,0.867,0.051c2.099,2.37,3.239,5.415,3.239,8.564v15.43C45.407,46.287,39.578,52.118,32.415,52.118
	L32.415,52.118z"/>
<path id="_461191072" fill="none" stroke="#E28425" stroke-width="0.4975" stroke-miterlimit="10" d="M41.42,32.957
	c-0.338,0-0.611-0.272-0.611-0.609v-8.654c0-0.933-0.154-1.841-0.453-2.721c-0.116-0.324,0.065-0.673,0.375-0.778
	c0.326-0.116,0.674,0.065,0.778,0.376c0.351,1.011,0.531,2.06,0.531,3.123v8.654C42.028,32.684,41.756,32.957,41.42,32.957z"/>
<path id="_461191312" fill="none" stroke="#E28425" stroke-width="0.4975" stroke-miterlimit="10" d="M40.901,42.737
	c-0.064,0-0.145-0.013-0.208-0.039c-0.325-0.116-0.493-0.466-0.376-0.79c0.324-0.894,0.479-1.84,0.479-2.784v-4.367
	c0-0.336,0.272-0.608,0.608-0.608c0.338,0,0.61,0.272,0.61,0.608v4.367c0,1.087-0.182,2.162-0.558,3.199
	C41.394,42.582,41.146,42.737,40.901,42.737L40.901,42.737z"/>
<path id="_461190592" fill="none" stroke="#E28425" stroke-width="0.4975" stroke-miterlimit="10" d="M32.415,48.749
	c-1.206,0-2.384-0.221-3.499-0.661c-0.311-0.13-0.465-0.479-0.35-0.79c0.13-0.311,0.48-0.467,0.79-0.35
	c0.973,0.389,1.997,0.582,3.045,0.582c2.604,0,5.104-1.257,6.698-3.354c0.209-0.272,0.583-0.324,0.855-0.117
	c0.272,0.208,0.323,0.583,0.116,0.856C38.271,47.311,35.395,48.749,32.415,48.749L32.415,48.749z"/>
<path id="_461190760" fill="none" stroke="#E28425" stroke-width="0.4975" stroke-miterlimit="10" d="M25.885,45.937
	c-0.168,0-0.324-0.063-0.44-0.192c-1.71-1.802-2.656-4.147-2.656-6.608v-0.998c0-0.337,0.272-0.607,0.61-0.607
	c0.336,0,0.608,0.271,0.608,0.607v0.998c0,2.15,0.816,4.197,2.319,5.766c0.233,0.245,0.221,0.635-0.025,0.868
	C26.196,45.873,26.041,45.937,25.885,45.937z"/>
<path id="_461190352" fill="none" stroke="#E28425" stroke-width="0.4975" stroke-miterlimit="10" d="M23.398,36.338
	c-0.337,0-0.61-0.272-0.61-0.608v-8.253c0-0.336,0.272-0.609,0.61-0.609c0.336,0,0.608,0.273,0.608,0.609v8.253
	C24.019,36.053,23.749,36.338,23.398,36.338z"/>
<path id="_461190880" fill="none" stroke="#E28425" stroke-width="0.4975" stroke-miterlimit="10" d="M23.398,25.663
	c-0.337,0-0.61-0.272-0.61-0.608v-1.36c0-1.814,0.518-3.589,1.49-5.118c0.183-0.285,0.558-0.375,0.842-0.194
	c0.285,0.181,0.376,0.557,0.194,0.842c-0.853,1.334-1.295,2.89-1.295,4.47v1.36C24.019,25.39,23.749,25.663,23.398,25.663z"/>
<path id="_461190160" fill="none" stroke="#E28425" stroke-width="0.4975" stroke-miterlimit="10" d="M27.038,17.099
	c-0.181,0-0.375-0.091-0.492-0.246c-0.208-0.273-0.143-0.662,0.116-0.855c0.532-0.402,1.101-0.738,1.698-1.023
	c0.311-0.142,0.673-0.013,0.815,0.298c0.143,0.311,0.013,0.673-0.296,0.817c-0.519,0.245-1.025,0.543-1.479,0.893
	C27.286,17.06,27.155,17.099,27.038,17.099z M39.644,18.965c-0.18,0-0.375-0.09-0.491-0.247c-0.843-1.127-1.944-2.034-3.213-2.629
	c-0.312-0.144-0.441-0.506-0.299-0.817s0.505-0.44,0.816-0.298c1.451,0.673,2.72,1.723,3.679,3.018
	c0.208,0.272,0.143,0.661-0.129,0.855C39.903,18.925,39.772,18.965,39.644,18.965L39.644,18.965z"/>
<path id="_461190712" fill="none" stroke="#E28425" stroke-width="0.4975" stroke-miterlimit="10" d="M38.038,38.359
	c-0.338,0-0.609-0.272-0.609-0.608V26.492c0-0.336,0.271-0.609,0.609-0.609c0.336,0,0.608,0.272,0.608,0.609v11.259
	C38.659,38.087,38.374,38.359,38.038,38.359z"/>
<path id="_461190856" fill="none" stroke="#E28425" stroke-width="0.4975" stroke-miterlimit="10" d="M32.415,45.367
	c-2.967,0-5.544-2.125-6.128-5.052c-0.064-0.337,0.156-0.661,0.479-0.727c0.337-0.063,0.661,0.156,0.726,0.479
	c0.466,2.357,2.539,4.068,4.923,4.068c2.254,0,4.302-1.594,4.857-3.782c0.092-0.325,0.415-0.531,0.752-0.441
	c0.323,0.091,0.531,0.415,0.44,0.752C37.752,43.437,35.265,45.367,32.415,45.367L32.415,45.367z"/>
<path id="_461190640" fill="none" stroke="#E28425" stroke-width="0.4975" stroke-miterlimit="10" d="M26.78,38.048
	c-0.337,0-0.61-0.272-0.61-0.609V28.72c0-0.337,0.272-0.609,0.61-0.609c0.335,0,0.608,0.271,0.608,0.609v8.718
	C27.388,37.775,27.116,38.048,26.78,38.048z"/>
<path id="_461190328" fill="none" stroke="#E28425" stroke-width="0.4975" stroke-miterlimit="10" d="M26.78,26.57
	c-0.337,0-0.61-0.272-0.61-0.61v-2.267c0-0.998,0.247-1.996,0.712-2.876c0.155-0.298,0.531-0.415,0.829-0.259
	c0.298,0.156,0.415,0.531,0.259,0.83c-0.375,0.712-0.57,1.502-0.57,2.306v2.267C27.388,26.298,27.116,26.57,26.78,26.57z"/>
<path id="_461190520" fill="none" stroke="#E28425" stroke-width="0.4975" stroke-miterlimit="10" d="M38.038,24.341
	c-0.338,0-0.609-0.272-0.609-0.609c0-2.786-2.255-5.053-5.014-5.053c-0.518,0-1.05,0.078-1.542,0.246
	c-0.323,0.104-0.674-0.064-0.778-0.388c-0.104-0.324,0.066-0.674,0.389-0.777c0.622-0.208,1.269-0.311,1.931-0.311
	c3.446,0,6.244,2.823,6.244,6.283C38.659,24.069,38.374,24.341,38.038,24.341z"/>
<path id="_461189632" fill="none" stroke="#E28425" stroke-width="0.4975" stroke-miterlimit="10" d="M30.161,25.921
	c-0.339,0-0.609-0.271-0.609-0.609v-1.619c0-1.555,1.308-2.863,2.863-2.863c1.23,0,2.359,0.828,2.733,2.021
	c0.104,0.324-0.077,0.673-0.403,0.777c-0.322,0.103-0.673-0.077-0.776-0.403c-0.221-0.685-0.867-1.165-1.567-1.165
	c-0.869,0-1.645,0.765-1.645,1.646v1.619C30.77,25.65,30.498,25.921,30.161,25.921L30.161,25.921z M30.161,30.819
	c-0.339,0-0.609-0.272-0.609-0.61v-2.474c0-0.337,0.27-0.609,0.609-0.609c0.336,0,0.609,0.271,0.609,0.609v2.474
	C30.77,30.533,30.498,30.819,30.161,30.819z M34.669,33.345c-0.338,0-0.609-0.272-0.609-0.608v-7.293
	c0-0.337,0.271-0.609,0.609-0.609c0.337,0,0.609,0.272,0.609,0.609v7.293C35.278,33.072,35.006,33.345,34.669,33.345z
	 M30.744,41.247c-0.169,0-0.336-0.064-0.454-0.192c-0.492-0.533-0.752-1.218-0.752-1.919v-6.504c0-0.336,0.272-0.608,0.609-0.608
	c0.337,0,0.61,0.271,0.61,0.608v6.504c0,0.402,0.155,0.79,0.439,1.088c0.233,0.246,0.208,0.636-0.038,0.869
	C31.042,41.195,30.898,41.247,30.744,41.247L30.744,41.247z M32.893,41.935c-0.284,0-0.53-0.194-0.595-0.479
	c-0.078-0.325,0.13-0.662,0.454-0.739c0.738-0.169,1.294-0.855,1.294-1.606v-3.977c0-0.337,0.272-0.61,0.61-0.61
	s0.608,0.273,0.608,0.61v3.977c0,1.32-0.946,2.5-2.24,2.798C32.985,41.935,32.945,41.935,32.893,41.935z"/>
<path id="_461191240" fill="none" stroke="#1BAECC" stroke-width="0.4975" stroke-miterlimit="10" d="M13.396,14.91h38.011v-2.461
	H13.396V14.91z M52.028,16.141h-39.24c-0.337,0-0.61-0.272-0.61-0.609v-3.679c0-0.337,0.273-0.609,0.61-0.609h39.24
	c0.338,0,0.609,0.272,0.609,0.609v3.679C52.651,15.868,52.366,16.141,52.028,16.141z"/>
</svg>
