<?xml version="1.0" encoding="utf-8"?>
<!-- Generator: Adobe Illustrator 16.0.0, SVG Export Plug-In . SVG Version: 6.00 Build 0)  -->
<!DOCTYPE svg PUBLIC "-//W3C//DTD SVG 1.1//EN" "http://www.w3.org/Graphics/SVG/1.1/DTD/svg11.dtd">
<svg version="1.1" id="Layer_1" xmlns="http://www.w3.org/2000/svg" xmlns:xlink="http://www.w3.org/1999/xlink" x="0px" y="0px"
	 width="64px" height="64px" viewBox="0 0 64 64" enable-background="new 0 0 64 64" xml:space="preserve">
<ellipse fill="none" stroke="#DCE468" stroke-width="0.4751" stroke-miterlimit="10" cx="40.822" cy="24.197" rx="19.556" ry="19.556"/>
<path fill="none" stroke="#000000" stroke-width="0.5" stroke-miterlimit="10" d="M29.047,25.984H32.9v7.618h-3.854V25.984z"/>
<path fill="none" stroke="#000000" stroke-width="0.5" stroke-miterlimit="10" d="M35.617,20.585h3.854v13.017h-3.854V20.585z"/>
<path fill="none" stroke="#000000" stroke-width="0.5" stroke-miterlimit="10" d="M42.188,25.984h3.853v7.618h-3.853V25.984z"/>
<path fill="none" stroke="#000000" stroke-width="0.5" stroke-miterlimit="10" d="M48.757,20.585h3.853v13.017h-3.853V20.585z"/>
<path fill="#8C8583" stroke="#000000" stroke-width="0.4751" stroke-miterlimit="10" d="M55.085,38.451
	c7.862-7.86,7.862-20.652,0-28.513c-7.878-7.878-20.635-7.879-28.514,0c-7.719,7.719-7.854,20.186-0.415,28.078L24.972,39.2
	c-0.236,0.235-0.236,0.618,0,0.854c0.236,0.234,0.618,0.234,0.854,0l1.185-1.186C34.919,46.32,47.376,46.161,55.085,38.451
	L55.085,38.451z M27.425,10.792c7.405-7.407,19.399-7.407,26.806,0c7.391,7.39,7.391,19.416,0,26.808
	c-7.389,7.39-19.414,7.39-26.806,0C20.034,30.208,20.034,18.182,27.425,10.792L27.425,10.792z"/>
<path fill="#8C8583" stroke="#000000" stroke-width="0.5" stroke-miterlimit="10" d="M13.984,56.695l1.431-1.43
	c0.237-0.236,0.237-0.619,0-0.854c-0.235-0.235-0.617-0.235-0.853,0l-1.432,1.432c-0.236,0.235-0.236,0.618,0,0.854
	C13.366,56.934,13.749,56.932,13.984,56.695z"/>
<path fill="#8C8583" stroke="#000000" stroke-width="0.5" stroke-miterlimit="10" d="M9.854,60.826l2.416-2.415
	c0.236-0.236,0.236-0.618,0-0.854c-0.236-0.234-0.618-0.234-0.854,0l-2.417,2.418c-1.088,1.092-2.86,1.09-3.951-0.002
	c-1.089-1.089-1.098-2.854,0-3.951l14.264-14.26c1.085-1.089,2.858-1.093,3.952,0.002c1.092,1.092,1.094,2.859,0,3.952L18.3,50.674
	c-0.235,0.235-0.235,0.618,0,0.854c0.236,0.236,0.618,0.236,0.855,0l4.963-4.957c1.564-1.564,1.566-4.094,0-5.659
	c-1.566-1.567-4.104-1.563-5.661,0L4.193,55.166c-1.565,1.564-1.565,4.096,0,5.66C5.757,62.391,8.295,62.395,9.854,60.826z"/>
<path fill="none" stroke="#000000" stroke-width="0.5" stroke-miterlimit="10" d="M29.047,34.206H32.9
	c0.334,0,0.604-0.271,0.604-0.604v-7.618c0-0.333-0.27-0.604-0.604-0.604h-3.854c-0.334,0-0.604,0.271-0.604,0.604v7.618
	C28.443,33.936,28.713,34.206,29.047,34.206z M29.651,26.587h2.646v6.411h-2.646V26.587z"/>
<path fill="none" stroke="#000000" stroke-width="0.5" stroke-miterlimit="10" d="M39.471,19.982h-3.854
	c-0.334,0-0.604,0.271-0.604,0.604v13.016c0,0.334,0.27,0.604,0.604,0.604h3.854c0.332,0,0.604-0.271,0.604-0.604V20.585
	C40.073,20.252,39.803,19.982,39.471,19.982z M38.866,32.998h-2.646V21.189h2.646V32.998z"/>
<path fill="none" stroke="#000000" stroke-width="0.5" stroke-miterlimit="10" d="M46.039,25.379h-3.854
	c-0.334,0-0.604,0.271-0.604,0.604v7.619c0,0.332,0.27,0.604,0.604,0.604h3.854c0.334,0,0.604-0.271,0.604-0.604v-7.619
	C46.643,25.65,46.373,25.379,46.039,25.379z M45.436,32.998H42.79v-6.411h2.646V32.998z"/>
<path fill="none" stroke="#000000" stroke-width="0.5" stroke-miterlimit="10" d="M48.152,20.585v13.017
	c0,0.332,0.271,0.604,0.604,0.604h3.852c0.334,0,0.604-0.271,0.604-0.604V20.585c0-0.333-0.271-0.604-0.604-0.604h-3.852
	C48.423,19.982,48.152,20.252,48.152,20.585z M49.359,21.189h2.646v11.809h-2.646V21.189z"/>
<path fill="#8C8583" stroke="#000000" stroke-width="0.5" stroke-miterlimit="10" d="M31.401,19.491l6.123-6.123l6.144,6.143
	c0.235,0.236,0.618,0.236,0.854,0l5.558-5.559v1.44c0,0.333,0.271,0.604,0.604,0.604s0.604-0.27,0.604-0.604v-2.888
	c0-0.333-0.271-0.604-0.604-0.604h-2.889c-0.334,0-0.604,0.271-0.604,0.604s0.27,0.604,0.604,0.604h1.421l-5.12,5.122l-6.144-6.142
	c-0.236-0.237-0.618-0.237-0.854,0l-6.55,6.549c-0.235,0.236-0.235,0.618,0,0.854C30.783,19.727,31.165,19.727,31.401,19.491
	L31.401,19.491z"/>
</svg>
