<?xml version="1.0" encoding="utf-8"?>
<!-- Generator: Adobe Illustrator 16.0.0, SVG Export Plug-In . SVG Version: 6.00 Build 0)  -->
<!DOCTYPE svg PUBLIC "-//W3C//DTD SVG 1.1//EN" "http://www.w3.org/Graphics/SVG/1.1/DTD/svg11.dtd">
<svg version="1.1" id="Layer_1" xmlns="http://www.w3.org/2000/svg" xmlns:xlink="http://www.w3.org/1999/xlink" x="0px" y="0px"
	 width="64px" height="64px" viewBox="0 0 64 64" enable-background="new 0 0 64 64" xml:space="preserve">
<path fill="none" stroke="#E28425" stroke-width="0.4777" stroke-miterlimit="10" d="M50.686,43.216
	c-0.494,0-0.894,0.401-0.894,0.896v13.94c0,0.495,0.399,0.896,0.894,0.896c0.496,0,0.898-0.401,0.898-0.896v-13.94
	C51.584,43.617,51.182,43.216,50.686,43.216z"/>
<path fill="#DCE468" stroke="#DCE468" stroke-width="0.4777" stroke-miterlimit="10" d="M30.626,25.63
	c-0.496,0-0.896,0.401-0.896,0.896v7.643c0,0.494,0.4,0.896,0.896,0.896c0.494,0,0.894-0.401,0.894-0.896v-7.643
	C31.52,26.031,31.12,25.63,30.626,25.63z"/>
<path fill="#DCE468" stroke="#DCE468" stroke-width="0.4777" stroke-miterlimit="10" d="M26.803,25.63
	c-0.495,0-0.896,0.401-0.896,0.896v7.643c0,0.494,0.401,0.896,0.896,0.896c0.496,0,0.896-0.401,0.896-0.896v-7.643
	C27.699,26.031,27.299,25.63,26.803,25.63z"/>
<path fill="#DCE468" stroke="#DCE468" stroke-width="0.4777" stroke-miterlimit="10" d="M22.982,25.63
	c-0.495,0-0.896,0.401-0.896,0.896v7.643c0,0.494,0.401,0.896,0.896,0.896c0.495,0,0.896-0.401,0.896-0.896v-7.643
	C23.878,26.031,23.477,25.63,22.982,25.63z"/>
<path fill="#DCE468" stroke="#DCE468" stroke-width="0.4777" stroke-miterlimit="10" d="M30.626,38.05
	c-0.496,0-0.896,0.4-0.896,0.896v7.643c0,0.494,0.4,0.896,0.896,0.896c0.494,0,0.894-0.402,0.894-0.896v-7.643
	C31.52,38.45,31.12,38.05,30.626,38.05z"/>
<path fill="#DCE468" stroke="#DCE468" stroke-width="0.4777" stroke-miterlimit="10" d="M26.803,38.05
	c-0.495,0-0.896,0.4-0.896,0.896v7.643c0,0.494,0.401,0.896,0.896,0.896c0.496,0,0.896-0.402,0.896-0.896v-7.643
	C27.699,38.45,27.299,38.05,26.803,38.05z"/>
<path fill="#DCE468" stroke="#DCE468" stroke-width="0.4777" stroke-miterlimit="10" d="M22.982,38.05
	c-0.495,0-0.896,0.4-0.896,0.896v7.643c0,0.494,0.401,0.896,0.896,0.896c0.495,0,0.896-0.402,0.896-0.896v-7.643
	C23.878,38.45,23.477,38.05,22.982,38.05z"/>
<path fill="#DCE468" stroke="#DCE468" stroke-width="0.4777" stroke-miterlimit="10" d="M30.626,50.468
	c-0.496,0-0.896,0.403-0.896,0.897v6.687c0,0.495,0.4,0.896,0.896,0.896c0.494,0,0.894-0.401,0.894-0.896v-6.687
	C31.52,50.871,31.12,50.468,30.626,50.468z"/>
<path fill="#DCE468" stroke="#DCE468" stroke-width="0.4777" stroke-miterlimit="10" d="M26.803,50.468
	c-0.495,0-0.896,0.403-0.896,0.897v6.687c0,0.495,0.401,0.896,0.896,0.896c0.496,0,0.896-0.401,0.896-0.896v-6.687
	C27.699,50.871,27.299,50.468,26.803,50.468z"/>
<path fill="#DCE468" stroke="#DCE468" stroke-width="0.4777" stroke-miterlimit="10" d="M22.982,50.468
	c-0.495,0-0.896,0.403-0.896,0.897v6.687c0,0.495,0.401,0.896,0.896,0.896c0.495,0,0.896-0.401,0.896-0.896v-6.687
	C23.878,50.871,23.477,50.468,22.982,50.468z"/>
<path fill="none" stroke="#1BAECC" stroke-width="0.4777" stroke-miterlimit="10" d="M46.865,36.14c-0.494,0-0.896,0.4-0.896,0.895
	V39.9c0,0.495,0.402,0.896,0.896,0.896c0.496,0,0.896-0.4,0.896-0.896v-2.866C47.761,36.54,47.361,36.14,46.865,36.14z"/>
<path fill="none" stroke="#1BAECC" stroke-width="0.4777" stroke-miterlimit="10" d="M43.045,36.14c-0.494,0-0.896,0.4-0.896,0.895
	V39.9c0,0.495,0.402,0.896,0.896,0.896s0.896-0.4,0.896-0.896v-2.866C43.94,36.54,43.539,36.14,43.045,36.14z"/>
<path fill="none" stroke="#1BAECC" stroke-width="0.4777" stroke-miterlimit="10" d="M39.224,36.14c-0.496,0-0.896,0.4-0.896,0.895
	V39.9c0,0.495,0.399,0.896,0.896,0.896c0.494,0,0.896-0.4,0.896-0.896v-2.866C40.12,36.54,39.718,36.14,39.224,36.14z"/>
<path fill="none" stroke="#1BAECC" stroke-width="0.4777" stroke-miterlimit="10" d="M46.865,43.78
	c-0.494,0-0.896,0.403-0.896,0.897v2.866c0,0.494,0.402,0.896,0.896,0.896c0.496,0,0.896-0.401,0.896-0.896v-2.866
	C47.761,44.184,47.361,43.78,46.865,43.78z"/>
<path fill="none" stroke="#1BAECC" stroke-width="0.4777" stroke-miterlimit="10" d="M43.045,43.78
	c-0.494,0-0.896,0.403-0.896,0.897v2.866c0,0.494,0.402,0.896,0.896,0.896s0.896-0.401,0.896-0.896v-2.866
	C43.94,44.184,43.539,43.78,43.045,43.78z"/>
<path fill="none" stroke="#1BAECC" stroke-width="0.4777" stroke-miterlimit="10" d="M39.224,43.78
	c-0.496,0-0.896,0.403-0.896,0.897v2.866c0,0.494,0.399,0.896,0.896,0.896c0.494,0,0.896-0.401,0.896-0.896v-2.866
	C40.12,44.184,39.718,43.78,39.224,43.78z"/>
<path fill="none" stroke="#1BAECC" stroke-width="0.4777" stroke-miterlimit="10" d="M46.865,51.424
	c-0.494,0-0.896,0.402-0.896,0.896v2.866c0,0.493,0.402,0.896,0.896,0.896c0.496,0,0.896-0.402,0.896-0.896V52.32
	C47.761,51.826,47.361,51.424,46.865,51.424z"/>
<path fill="none" stroke="#1BAECC" stroke-width="0.4777" stroke-miterlimit="10" d="M43.045,51.424
	c-0.494,0-0.896,0.402-0.896,0.896v2.866c0,0.493,0.402,0.896,0.896,0.896s0.896-0.402,0.896-0.896V52.32
	C43.94,51.826,43.539,51.424,43.045,51.424z"/>
<path fill="none" stroke="#1BAECC" stroke-width="0.4777" stroke-miterlimit="10" d="M39.224,51.424
	c-0.496,0-0.896,0.402-0.896,0.896v2.866c0,0.493,0.399,0.896,0.896,0.896c0.494,0,0.896-0.402,0.896-0.896V52.32
	C40.12,51.826,39.718,51.424,39.224,51.424z"/>
<path fill="none" stroke="#1BAECC" stroke-width="0.4777" stroke-miterlimit="10" d="M6.742,36.14c-0.495,0-0.896,0.4-0.896,0.895
	V39.9c0,0.495,0.4,0.896,0.896,0.896c0.494,0,0.896-0.4,0.896-0.896v-2.866C7.637,36.54,7.235,36.14,6.742,36.14z"/>
<path fill="none" stroke="#1BAECC" stroke-width="0.4777" stroke-miterlimit="10" d="M10.563,36.14c-0.495,0-0.896,0.4-0.896,0.895
	V39.9c0,0.495,0.401,0.896,0.896,0.896s0.896-0.4,0.896-0.896v-2.866C11.458,36.54,11.058,36.14,10.563,36.14z"/>
<path fill="none" stroke="#1BAECC" stroke-width="0.4777" stroke-miterlimit="10" d="M14.384,36.14c-0.495,0-0.896,0.4-0.896,0.895
	V39.9c0,0.495,0.401,0.896,0.896,0.896c0.495,0,0.896-0.4,0.896-0.896v-2.866C15.28,36.54,14.879,36.14,14.384,36.14z"/>
<path fill="none" stroke="#1BAECC" stroke-width="0.4777" stroke-miterlimit="10" d="M6.742,43.78c-0.495,0-0.896,0.403-0.896,0.897
	v2.866c0,0.494,0.4,0.896,0.896,0.896c0.494,0,0.896-0.401,0.896-0.896v-2.866C7.637,44.184,7.235,43.78,6.742,43.78z"/>
<path fill="none" stroke="#1BAECC" stroke-width="0.4777" stroke-miterlimit="10" d="M10.563,43.78
	c-0.495,0-0.896,0.403-0.896,0.897v2.866c0,0.494,0.401,0.896,0.896,0.896s0.896-0.401,0.896-0.896v-2.866
	C11.458,44.184,11.058,43.78,10.563,43.78z"/>
<path fill="none" stroke="#1BAECC" stroke-width="0.4777" stroke-miterlimit="10" d="M14.384,43.78
	c-0.495,0-0.896,0.403-0.896,0.897v2.866c0,0.494,0.401,0.896,0.896,0.896c0.495,0,0.896-0.401,0.896-0.896v-2.866
	C15.28,44.184,14.879,43.78,14.384,43.78z"/>
<path fill="none" stroke="#1BAECC" stroke-width="0.4777" stroke-miterlimit="10" d="M6.742,51.424
	c-0.495,0-0.896,0.402-0.896,0.896v2.866c0,0.493,0.4,0.896,0.896,0.896c0.494,0,0.896-0.402,0.896-0.896V52.32
	C7.637,51.826,7.235,51.424,6.742,51.424z"/>
<path fill="none" stroke="#1BAECC" stroke-width="0.4777" stroke-miterlimit="10" d="M10.563,51.424
	c-0.495,0-0.896,0.402-0.896,0.896v2.866c0,0.493,0.401,0.896,0.896,0.896s0.896-0.402,0.896-0.896V52.32
	C11.458,51.826,11.058,51.424,10.563,51.424z"/>
<path fill="none" stroke="#1BAECC" stroke-width="0.4777" stroke-miterlimit="10" d="M14.384,51.424
	c-0.495,0-0.896,0.402-0.896,0.896v2.866c0,0.493,0.401,0.896,0.896,0.896c0.495,0,0.896-0.402,0.896-0.896V52.32
	C15.28,51.826,14.879,51.424,14.384,51.424z"/>
<path fill="none" stroke="#E28425" stroke-width="0.4777" stroke-miterlimit="10" d="M62.929,27.992
	c-0.042-0.074-1.053-1.822-3.055-3.573c-2.665-2.333-5.843-3.565-9.188-3.565c-3.343,0-6.521,1.232-9.186,3.565
	c-2.002,1.751-3.013,3.5-3.055,3.573c-0.157,0.276-0.157,0.613,0,0.889c0.042,0.072,1.003,1.733,2.899,3.437h-6.002v-9.613
	c0-0.495-0.402-0.896-0.896-0.896H31.52v-7.702c0-0.495-0.399-0.896-0.894-0.896c-0.496,0-0.896,0.401-0.896,0.896v7.702h-2.031
	V9.33c0-0.495-0.4-0.896-0.896-0.896c-0.495,0-0.896,0.401-0.896,0.896v12.479h-2.03v-7.702c0-0.495-0.401-0.896-0.896-0.896
	c-0.495,0-0.896,0.401-0.896,0.896v7.702h-2.926c-0.495,0-0.896,0.401-0.896,0.896v9.613H2.92c-0.495,0-0.896,0.401-0.896,0.896
	v24.838c0,0.495,0.401,0.896,0.896,0.896s0.896-0.401,0.896-0.896V34.108h14.449v23.943c0,0.495,0.4,0.896,0.896,0.896
	s0.896-0.401,0.896-0.896V23.601h13.494v34.451c0,0.495,0.399,0.896,0.896,0.896c0.494,0,0.896-0.401,0.896-0.896V34.108h8.319
	c0.035,0,0.071-0.002,0.106-0.006c1.865,1.105,3.904,1.746,6.023,1.887V40c0,0.494,0.399,0.895,0.894,0.895
	c0.496,0,0.898-0.4,0.898-0.895v-4.011c3.015-0.201,5.864-1.412,8.29-3.535c2.002-1.751,3.013-3.5,3.055-3.574
	C63.086,28.605,63.086,28.268,62.929,27.992z M50.686,34.228c-2.925,0-5.604-1.036-7.961-3.082c-1.217-1.056-2.035-2.127-2.438-2.71
	c0.984-1.426,4.479-5.792,10.398-5.792c2.927,0,5.606,1.037,7.964,3.082c1.219,1.058,2.035,2.128,2.437,2.71
	C60.103,29.863,56.608,34.228,50.686,34.228z"/>
<path fill="none" stroke="#E28425" stroke-width="0.4777" stroke-miterlimit="10" d="M50.686,22.764
	c-3.125,0-5.671,2.545-5.671,5.673c0,3.128,2.546,5.672,5.671,5.672c3.128,0,5.674-2.544,5.674-5.672
	C56.359,25.309,53.813,22.764,50.686,22.764z M50.686,32.317c-2.14,0-3.879-1.741-3.879-3.881c0-2.14,1.739-3.881,3.879-3.881
	c2.142,0,3.882,1.741,3.882,3.881C54.567,30.576,52.827,32.317,50.686,32.317z"/>
<path fill="none" stroke="#E28425" stroke-width="0.4777" stroke-miterlimit="10" d="M56.091,16.121
	c0.783,0,1.186-0.977,0.635-1.529c-1.614-1.612-3.758-2.5-6.04-2.5c-2.279,0-4.423,0.888-6.035,2.5c-0.352,0.35-0.352,0.917,0,1.267
	c0.35,0.35,0.915,0.35,1.267,0c1.274-1.274,2.969-1.976,4.769-1.976c1.803,0,3.499,0.701,4.771,1.976
	C55.633,16.034,55.863,16.121,56.091,16.121z"/>
<path fill="none" stroke="#E28425" stroke-width="0.4777" stroke-miterlimit="10" d="M42.538,12.481
	c2.177-2.177,5.07-3.376,8.147-3.376c3.08,0,5.973,1.199,8.15,3.376c0.364,0.364,0.979,0.34,1.314-0.052
	c0.3-0.35,0.278-0.889-0.048-1.215c-2.515-2.515-5.857-3.9-9.417-3.9c-3.555,0-6.897,1.385-9.414,3.9c-0.35,0.35-0.35,0.917,0,1.267
	C41.621,12.831,42.188,12.831,42.538,12.481z"/>
<path fill="none" stroke="#E28425" stroke-width="0.4777" stroke-miterlimit="10" d="M47.353,17.294
	c-0.352,0.35-0.352,0.917,0,1.267c0.348,0.35,0.915,0.35,1.267,0c0.551-0.553,1.286-0.857,2.066-0.857
	c0.783,0,1.519,0.305,2.07,0.857c0.364,0.364,0.979,0.34,1.315-0.051c0.299-0.351,0.276-0.889-0.049-1.215
	c-0.89-0.891-2.076-1.381-3.337-1.381C49.428,15.913,48.243,16.404,47.353,17.294z"/>
</svg>
